<svg xmlns="http://www.w3.org/2000/svg" version="1.2" baseProfile="tiny-ps" viewBox="0 0 1128 1128" preserveAspectRatio="xMidYMid meet" xml:space="preserve"><title>Yzerly logo</title>

  

  <rect width="1128" height="1128" fill="white"/>

  <g transform="translate(0,698) scale(0.1,-0.1)" fill="#000000" stroke="none">

    <path d="M0 1340 l0 -1340 5640 0 5640 0 0 1340 0 1340 -5640 0 -5640 0 0 -1340z m729 930 c8 -25 99 -211 202 -415 266 -525 283 -558 295 -562 5 -2 32 43 59 99 27 57 81 171 121 253 76 159 162 338 224 470 21 44 48 107 61 140 23 57 26 60 62 63 20 2 37 1 37 -2 0 -3 -18 -35 -40 -71 -22 -36 -40 -67 -40 -69 0 -4 -69 -151 -160 -341 -121 -254 -229 -480 -287 -605 l-35 -74 6 -351 c4 -192 9 -380 12 -418 l6 -67 -233 2 -233 3 3 55 c1 30 6 84 11 120 5 36 10 199 10 363 l0 298 -176 347 c-312 614 -345 676 -395 739 -27 35 -49 65 -49 68 0 3 118 4 263 3 l262 -3 14 -45z m2929 5 c3 -42 -8 -63 -200 -375 -39 -63 -90 -146 -113 -185 -24 -38 -81 -133 -129 -210 -47 -77 -113 -185 -146 -240 -34 -55 -88 -143 -120 -195 -33 -52 -64 -104 -70 -115 -6 -11 -37 -63 -70 -115 -64 -103 -158 -256 -232 -378 -25 -42 -44 -80 -41 -84 2 -5 138 -8 302 -8 381 0 526 20 774 105 53 19 97 30 97 25 0 -17 -72 -165 -84 -172 -6 -4 -362 -7 -791 -5 l-780 2 -3 45 c-2 36 3 54 22 83 14 20 50 78 81 129 31 51 82 136 115 188 32 52 83 135 112 184 29 48 60 98 68 111 8 13 39 63 68 111 30 49 85 139 122 199 38 61 92 148 120 195 29 47 82 135 120 195 38 61 92 150 122 199 29 48 60 99 68 112 39 60 110 182 110 188 0 3 -111 6 -247 6 -358 0 -458 -18 -655 -116 l-47 -24 -52 73 c-29 39 -59 78 -66 85 -7 7 -13 18 -13 23 0 6 300 8 778 7 l777 -3 3 -40z m1712 35 c0 -6 -21 -40 -47 -75 -27 -35 -56 -75 -65 -88 l-16 -24 -79 39 c-166 81 -324 112 -553 106 l-135 -3 -3 -434 -2 -434 272 6 c150 4 292 11 316 16 l42 8 0 -52 0 -53 -37 9 c-21 5 -163 12 -316 16 l-277 6 2 -489 3 -489 180 -3 c241 -4 405 18 615 83 30 9 64 21 75 25 42 18 85 29 85 22 0 -4 -20 -45 -43 -92 l-42 -85 -657 -3 -657 -2 7 97 c9 127 9 1678 0 1806 l-7 97 669 0 c459 0 670 -3 670 -10z m1130 0 c411 -26 618 -140 689 -376 57 -191 -2 -405 -141 -515 -89 -70 -246 -130 -378 -144 -30 -3 -71 -8 -90 -11 l-35 -6 25 -14 c14 -7 34 -14 45 -14 30 0 164 -61 220 -100 113 -77 200 -193 273 -360 54 -126 86 -184 132 -246 69 -92 182 -154 279 -154 38 0 41 -2 41 -26 l0 -26 -107 6 c-173 11 -304 25 -343 37 -162 52 -237 94 -310 176 -51 57 -106 162 -146 278 -46 136 -119 277 -171 330 -67 67 -130 93 -249 101 l-96 7 6 -429 c3 -236 7 -445 8 -464 l3 -35 -230 0 c-154 0 -229 3 -228 10 1 6 7 112 13 236 12 221 7 1504 -6 1677 l-6 72 319 0 c175 0 392 -5 483 -10z m1795 -17 c-4 -16 -10 -454 -12 -975 l-4 -948 163 0 c249 0 426 30 652 109 49 17 91 30 92 28 1 -1 -17 -44 -41 -95 l-44 -92 -625 0 c-343 0 -631 2 -639 5 -12 5 -12 19 2 103 21 133 23 1672 3 1794 -7 43 -11 82 -7 88 4 6 92 10 237 10 l230 0 -7 -27z m1669 -5 c9 -17 16 -36 16 -42 0 -24 482 -966 492 -960 4 2 19 30 34 62 15 31 54 113 87 182 32 69 76 161 97 205 21 44 73 152 115 240 43 88 95 201 115 250 36 88 38 90 74 93 20 2 36 0 36 -3 0 -4 -15 -33 -34 -65 -19 -32 -54 -100 -79 -151 -142 -297 -245 -514 -294 -619 -20 -41 -62 -131 -95 -200 l-60 -125 5 -360 c3 -198 11 -382 16 -409 6 -26 8 -52 5 -57 -3 -5 -108 -9 -235 -9 l-229 0 0 23 c0 12 5 78 10 147 5 69 10 247 10 397 l1 272 -34 68 c-141 284 -448 882 -484 942 -24 41 -55 87 -68 103 -14 16 -25 34 -25 39 0 5 106 9 254 9 l255 0 15 -32z M6140 1785 l0 -485 133 0 c272 1 411 76 481 263 25 65 36 204 25 316 -7 77 -15 107 -45 168 -79 160 -213 223 -475 223 l-119 0 0 -485z"/>

  </g>

</svg>
